<svg id="Layer_1" xmlns="http://www.w3.org/2000/svg" viewBox="0 0 120 120">
  <style>
    .st1{fill:#344563}.st2{fill:#ffe1a4}.st4{fill:#42526e}
  </style>
  <path d="M60 120C27 120 0 93 0 60S27 0 60 0s60 27 60 60-27 60-60 60z" fill="#2684ff"/>
  <path class="st1" d="M92 63.5H28.5V37c0-6.5 5-11.5 11.5-11.5h41.5C88 25.5 93 30.5 93 37l-1 26.5z"/>
  <circle class="st2" cx="89" cy="65" r="6.5"/>
  <circle class="st2" cx="31" cy="65" r="6.5"/>
  <path d="M60 102.5c-16 0-29-13-29-29v-26h47c6.5 0 11.5 5 11.5 11.5v15.5c-.5 15-13.5 28-29.5 28z" fill="#f4bf73"/>
  <circle class="st4" cx="45.5" cy="68.5" r="3.5"/>
  <circle class="st4" cx="74.5" cy="68.5" r="3.5"/>
  <path class="st4" d="M59.6 96.5c4 0 7.9-2.5 8.9-6 .5-1.5-.5-3-2.5-3H53.5c-1.5 0-2.5 1.5-2.5 3 0 2 4.6 6 8.6 6z"/>
  <path class="st2" d="M61.5 62.5c-2 0-3.5 1.5-3.5 3.5v7c0 1-1 1-1 1-2 0-3.5 1.5-3.5 3.5S55 81 57 81h4c2.5 0 3.5-1.5 3.5-3.5V66c0-2.5-1-3.5-3-3.5z"/>
  <path class="st1" d="M78.5 34.5h-16c0-9 7-16 16-16v16zM30 37h17.5c0 9.5-7.5 17.5-17.5 17.5V37z"/>
  <path class="st1" d="M44 38.5h13.5C57.5 46 51.5 52 44 52V38.5z"/>
  <path class="st4" d="M47 60.5h-4.5c-1 0-2-1-2-2s1-2 2-2H47c1 0 2 1 2 2s-1 2-2 2zM76.5 60.5H72c-1 0-2-1-2-2s1-2 2-2h4.5c1 0 2 1 2 2s-.5 2-2 2z"/>
</svg>