<svg id="Layer_1" xmlns="http://www.w3.org/2000/svg" viewBox="0 0 120 120">
  <style>
    .st1{fill:#ff8b00}.st3{fill:#fff}.st4{fill:#42526e}
  </style>
  <path d="M60 120C27 120 0 93 0 60S27 0 60 0s60 27 60 60-27 60-60 60z" fill="#00a3bf"/>
  <path class="st1" d="M88 97H32c-2 0-3-1.5-3-3v-4.5h62.5v3.4c0 1-.3 2-.9 2.8-.6.8-1.4 1.3-2.6 1.3zM93 71.5H27c-4.5 0-8.5-3.5-8.5-8.5 0-4.5 3.5-8.5 8.5-8.5h66c4.5 0 8.5 3.5 8.5 8.5s-4 8.5-8.5 8.5z"/>
  <path d="M91 89.5H29c-2 0-3-1.5-3-3V57c-.5-19 15-34.5 34-34.5S94.5 38 94.5 57v29.5c0 1.5-1.5 3-3.5 3z" fill="#ffab00"/>
  <circle class="st3" cx="44.5" cy="52" r="9.5"/>
  <circle class="st4" cx="44.5" cy="52" r="3"/>
  <circle class="st3" cx="75.5" cy="52" r="9.5"/>
  <circle class="st4" cx="75.5" cy="52" r="3"/>
  <path class="st1" d="M62.5 69.5H57c-2.5 0-4-2.5-2.5-5l2.5-4c1-2 4-2 5.5 0l2.5 4c1.5 2 .5 5-2.5 5z"/>
  <path class="st4" d="M60 83.5c4.5 0 8.5-3.5 9-7.5.1-1.3-.9-2-1.9-2H53.5c-1 0-2.6.3-2.5 2 .5 4.5 4.5 7.5 9 7.5z"/>
  <path class="st1" d="M60 41c3.5 0 6.5-2.5 6.5-6.5V23c-2-.5-4-.5-6.5-.5-2 0-4.5 0-6.5.5v12c0 3 3 6 6.5 6z"/>
</svg>