<svg id="Layer_1" xmlns="http://www.w3.org/2000/svg" viewBox="0 0 120 120">
  <style>
    .st1{fill:#f7d1c3}.st2{fill:#ffe2d9}.st4{fill:#42526e}
  </style>
  <path d="M60 120C27 120 0 93 0 60S27 0 60 0s60 27 60 60-27 60-60 60z" fill="#00b8d9"/>
  <circle class="st1" cx="32.5" cy="60.5" r="7.5"/>
  <circle class="st1" cx="89" cy="60.5" r="7.5"/>
  <path class="st2" d="M31 41h59v43.5H31z"/>
  <path d="M92.5 81.5c0-2.5-1-4.5-2.5-6v-26c-4 0-7.5 3.5-7.5 7.5v12c0 2.5-1.5 3.5-3.5 3.5H42c-2.5 0-3.5-1.5-3.5-3.5V57c0-4-3.5-7.5-7.5-7.5V74c-2.5 1.5-3.5 4-3.5 6.5 0 4 3 7.5 7 8.5v.5c0 6 5 11 11 11 1 0 2.5-.5 3.5-.5 2 3.5 5.5 6.5 10 6.5s8-2.5 9.5-6c1.5 1 3.5 1.5 5.5 1.5 5.5 0 10-4.5 10-10v-1.5c4.5 0 8.5-4 8.5-9z" fill="#f80"/>
  <path class="st4" d="M60 88c3.5 0 6-2.5 7-5.5.5-1-.5-2.5-2-2.5H54.5c-1 0-2.5 1-2 2.5 1.5 4 4 5.5 7.5 5.5z"/>
  <circle class="st2" cx="60" cy="70" r="6"/>
  <circle class="st4" cx="49.5" cy="63" r="3"/>
  <circle class="st4" cx="70.5" cy="63" r="3"/>
  <path d="M87.5 45h-55v-4C32.5 26 45 13.5 60 13.5S87.5 26 87.5 41v4z" fill="#ff5630"/>
  <path d="M88.5 45h-58c-2 0-4-2-4-4s2-4 4-4h58c2 0 4 2 4 4s-2 4-4 4z" fill="#de350b"/>
</svg>