<svg id="Layer_1" xmlns="http://www.w3.org/2000/svg" viewBox="0 0 120 120">
  <style>
    .st1{fill:#ffcb80}.st2{fill:#ffe1a4}.st3{fill:#42526e}.st5{fill:#fff}
  </style>
  <path d="M60 120C27 120 0 93 0 60S27 0 60 0s60 27 60 60-27 60-60 60z" fill="#ff5630"/>
  <circle class="st1" cx="95" cy="64" r="6"/>
  <circle class="st1" cx="29.5" cy="64" r="6"/>
  <path class="st2" d="M62.5 103.5c-18 0-33-14.5-33-32.5V41H95v29.5c0 18-14.5 33-32.5 33z"/>
  <path class="st1" d="M44 49H29.5v21.5c0 17.7 13 31.3 29.5 32.8V64c0-8.5-6.5-15-15-15z"/>
  <circle class="st3" cx="45.5" cy="60.5" r="3.5"/>
  <circle class="st3" cx="75.5" cy="60.5" r="3.5"/>
  <path class="st3" d="M78.9 41H29.7c-4.1 0-7.2-3-7.2-6.5v-10h49.7c3.6 0 6.7 3 6.7 6.5v10z"/>
  <path d="M95 57.5c-9 0-16.1-7.5-16.1-16.5v-6.5h9.5c3.5 0 6.6 3 6.6 6.5v16.5z" fill="#253858"/>
  <path class="st3" d="M62.5 94.5C69 94.5 74 90 75 84c.1-1.7-.5-2.5-2.5-2.5H51c-1.5 0-2.8.6-2.5 2.5 1.5 6.3 7.5 10.5 14 10.5z"/>
  <path class="st5" d="M52 81.5s1.5 6.5 3.5 6.5 3.5-6.5 3.5-6.5h-7zM65.5 81.5s1 6.5 3.5 6.5 3.5-6.5 3.5-6.5h-7z"/>
  <path class="st2" d="M63.5 75.5H58c-4.4 0-4.5-5-4.5-5 0-3.2 2.5-5 5-5h5v10z"/>
</svg>